
<svg width="300" height="300" viewBox="0 0 300 300" fill="none" xmlns="http://www.w3.org/2000/svg">
  <!-- Stylized illustration of person with phone -->
  <circle cx="150" cy="120" r="30" fill="#F7E3DA"/>
  <!-- Head -->
  <path d="M150 90c-15 0-25 10-25 30s10 30 25 30 25-10 25-30-10-30-25-30z" fill="#F7E3DA"/>
  <!-- Hair -->
  <path d="M135 90c0 0-15 0-15 15s5 15 15 15" fill="#222"/>
  <path d="M150 90c0 0 15 0 15 5s-5 15-15 15" fill="#222"/>
  <circle cx="140" cy="115" r="3" fill="#222"/>
  <circle cx="160" cy="115" r="3" fill="#222"/>
  <!-- Glasses -->
  <path d="M135 115h30" stroke="#222" stroke-width="2"/>
  <circle cx="140" cy="115" r="8" stroke="#222" stroke-width="2" fill="none"/>
  <circle cx="160" cy="115" r="8" stroke="#222" stroke-width="2" fill="none"/>
  <!-- Body -->
  <path d="M120 150c0 0 10 80 30 80s30-80 30-80" fill="#222"/>
  <!-- Arms -->
  <path d="M120 150c-10 10-10 70 0 80" stroke="#F7E3DA" stroke-width="15"/>
  <path d="M180 150c10 10 10 70 0 80" stroke="#F7E3DA" stroke-width="15"/>
  <!-- Phone -->
  <rect x="140" y="190" width="20" height="40" rx="2" fill="#333"/>
  <rect x="143" y="193" width="14" height="30" rx="1" fill="#6FC2FF"/>
  <!-- Charts -->
  <rect x="190" y="160" width="30" height="20" rx="2" fill="#F472B6"/>
  <path d="M195 170h20M195 165h10M195 175h15" stroke="#FFF" stroke-width="1"/>
  <rect x="190" y="185" width="30" height="20" rx="2" fill="#A78BFA"/>
  <path d="M195 195h20M195 190h10M195 200h15" stroke="#FFF" stroke-width="1"/>
  <!-- Briefcase -->
  <rect x="110" y="230" width="30" height="20" rx="2" fill="#89022B"/>
  <rect x="120" y="228" width="10" height="2" fill="#89022B"/>
</svg>
